<svg version="1.0" xmlns="http://www.w3.org/2000/svg"
 width="400.000000pt" height="400.000000pt" viewBox="0 0 200.000000 200.000000"
 preserveAspectRatio="xMidYMid meet">

<g transform="translate(0.000000,200.000000) scale(0.100000,-0.100000)"
fill="black" stroke="none">
<circle r="960" cx="980" cy="955" fill="white"/>
<path fill="green" d="M300 1571 c-98 -30 -160 -105 -160 -195 0 -17 20 -74 45 -126 71
-150 60 -226 -36 -239 -44 -6 -44 -6 -47 -50 -4 -49 6 -61 51 -61 16 0 38 -10
52 -25 40 -39 34 -100 -20 -215 -50 -105 -55 -143 -26 -205 35 -77 124 -125
233 -125 l48 0 0 50 c0 48 -1 50 -28 50 -43 0 -93 18 -119 42 -34 32 -30 84
12 178 55 121 48 211 -20 276 l-34 32 24 16 c39 25 65 87 65 152 0 43 -8 75
-35 134 -67 149 -33 220 106 220 28 0 29 2 29 50 l0 50 -57 -1 c-32 0 -69 -4
-83 -8z"/>
<path fill="green" d="M1510 1531 l0 -51 40 0 c53 0 104 -22 125 -54 23 -34 16 -77 -25
-165 -57 -119 -47 -220 26 -281 l30 -25 -33 -28 c-71 -62 -80 -164 -24 -274
69 -139 44 -207 -83 -220 l-56 -6 0 -50 0 -50 73 5 c51 3 87 12 124 31 70 36
96 75 101 152 4 56 0 69 -36 144 -22 45 -43 99 -47 120 -9 53 15 108 49 116
14 3 37 7 51 10 23 5 25 10 25 55 l0 50 -34 0 c-22 0 -45 9 -63 24 -43 37 -38
98 16 214 40 82 43 96 39 150 -8 110 -84 171 -224 180 l-74 5 0 -52z"/>
<path d="M657 1544 c-3 -4 -2 -16 4 -28 10 -20 9 -20 -5 -2 -8 10 -19 15 -25
11 -17 -10 -13 -43 7 -54 44 -23 79 -355 50 -466 l-13 -50 127 -124 c120 -115
234 -260 253 -320 5 -17 12 -20 33 -15 43 10 173 81 215 117 l38 32 -61 120
c-57 112 -90 219 -134 427 -5 21 -16 30 -58 43 -64 21 -169 76 -223 118 -103
80 -155 131 -155 151 0 34 -34 59 -53 40z m33 -74 c6 -11 8 -20 6 -20 -3 0
-10 9 -16 20 -6 11 -8 20 -6 20 3 0 10 -9 16 -20z m35 -60 c9 -16 13 -30 11
-30 -3 0 -12 14 -21 30 -9 17 -13 30 -11 30 3 0 12 -13 21 -30z m40 -70 c9
-16 13 -30 11 -30 -3 0 -12 14 -21 30 -9 17 -13 30 -11 30 3 0 12 -13 21 -30z
m40 -70 c9 -16 13 -30 11 -30 -3 0 -12 14 -21 30 -9 17 -13 30 -11 30 3 0 12
-13 21 -30z m35 -60 c6 -11 8 -20 6 -20 -3 0 -10 9 -16 20 -6 11 -8 20 -6 20
3 0 10 -9 16 -20z m35 -60 c9 -16 13 -30 11 -30 -3 0 -12 14 -21 30 -9 17 -13
30 -11 30 3 0 12 -13 21 -30z m40 -70 c9 -16 13 -30 11 -30 -3 0 -12 14 -21
30 -9 17 -13 30 -11 30 3 0 12 -13 21 -30z m35 -60 c6 -11 8 -20 6 -20 -3 0
-10 9 -16 20 -6 11 -8 20 -6 20 3 0 10 -9 16 -20z m70 -40 c24 -24 24 -29 4
-58 -18 -27 -61 -27 -77 -1 -14 22 -1 67 21 72 30 8 32 7 52 -13z"/>
<path d="M1325 601 c-43 -43 -141 -99 -203 -117 -40 -12 -52 -20 -50 -32 6
-27 62 -18 144 23 82 40 182 124 170 143 -12 19 -29 14 -61 -17z"/>
</g>
</svg>
